<?xml version="1.0" encoding="utf-8"?>
<!-- Generator: Adobe Illustrator 23.0.1, SVG Export Plug-In . SVG Version: 6.00 Build 0)  -->
<svg version="1.2" baseProfile="tiny" id="Layer_1" xmlns="http://www.w3.org/2000/svg" xmlns:xlink="http://www.w3.org/1999/xlink"
	 x="0px" y="0px" viewBox="0 0 125 35" xml:space="preserve">
<g>
	<g>
		<path fill="#FFFFFF" d="M92.4,14.1c0,0.4-0.3,0.8-0.8,0.8c-0.4,0-0.8-0.3-0.8-0.8c0-0.4,0.4-0.8,0.8-0.8
			C92,13.4,92.4,13.7,92.4,14.1z M91,14.1c0,0.3,0.3,0.6,0.6,0.6c0.3,0,0.6-0.3,0.6-0.6c0-0.3-0.3-0.6-0.6-0.6
			C91.2,13.5,91,13.8,91,14.1z M91.4,14.5h-0.2v-0.8c0.1,0,0.2,0,0.3,0c0.1,0,0.2,0,0.3,0.1c0,0,0.1,0.1,0.1,0.2
			c0,0.1-0.1,0.2-0.2,0.2v0c0.1,0,0.1,0.1,0.1,0.2c0,0.1,0,0.2,0.1,0.2h-0.2c0,0,0-0.1-0.1-0.2c0-0.1-0.1-0.1-0.2-0.1h-0.1V14.5z
			 M91.4,14.1L91.4,14.1c0.2,0,0.3,0,0.3-0.1c0-0.1-0.1-0.1-0.2-0.1c0,0-0.1,0-0.1,0V14.1z"/>
	</g>
	<path fill="#FFFFFF" d="M119.8,18.1c0,6.5-5.3,11.7-11.7,11.7c-6.5,0-11.7-5.2-11.7-11.7c0-2.1,0.6-4.2,1.6-5.9
		c2-3.5,5.8-5.8,10.1-5.8C114.5,6.3,119.8,11.6,119.8,18.1z"/>
	<path fill="#00A0E3" d="M111.7,21.2c-2.6-2.9-5.7-0.7-9-1.4c-2.6-0.6-4.7-2.8-4.9-5.5c-0.1-0.7,0-1.4,0.1-2
		c-0.1,0.1-0.1,0.2-0.2,0.3c0,0,0,0,0,0.1c0,0,0,0,0,0.1c-0.2,0.4-0.4,0.8-0.5,1.2c-0.3,0.9-0.5,1.9-0.4,2.8c0.4,3.5,3.8,5.9,7,6.4
		c1.9,0.3,3.5-0.2,5.4,0c1.2,0.1,2.4,0.5,3.1,1.5c0.8,1,2,2.7,3.5,2.4l0,0C113.3,25.6,114.1,23.8,111.7,21.2z"/>
	<path fill="#00A0E3" d="M110.4,6.6c-2.5-0.5-5-0.2-7.2,0.8c-1.6,0.7-3.2,2.7-3.1,4.6c0.3,3.9,4,4,7,4.2c3,0.2,5.5,0.9,7,3.8
		c0.6,1.1,0.8,2.2,1.1,3.4c0.3,1.5,2,2,2.7,1c0.8-1.2,1.3-2.5,1.6-4C120.8,14.1,116.8,7.9,110.4,6.6z"/>
	<path fill="#FFFFFF" d="M15.6,19.4c0,1.6-0.6,2.9-1.7,4c-1.1,1.1-2.5,1.7-4.1,1.7c-1.5,0-2.8-0.5-3.8-1.6c-1-1-1.6-2.3-1.6-3.8
		c0-1.6,0.6-2.9,1.7-4.1c1.1-1.2,2.4-1.8,3.9-1.8c1.6,0,3,0.5,4,1.5C15.1,16.5,15.6,17.8,15.6,19.4z M7.6,19.6
		c0,0.7,0.2,1.4,0.7,1.9c0.5,0.5,1,0.7,1.7,0.7c0.7,0,1.3-0.3,1.7-0.8c0.5-0.5,0.7-1.2,0.7-1.9c0-0.8-0.2-1.4-0.7-1.9
		c-0.5-0.5-1-0.7-1.8-0.7c-0.7,0-1.2,0.3-1.7,0.8C7.9,18.2,7.6,18.8,7.6,19.6z"/>
	<path fill="#FFFFFF" d="M19,23.6l-0.9,6h-3l2.2-15.5h3l-0.1,0.8c0.6-0.4,1.1-0.6,1.5-0.8c0.4-0.2,0.9-0.2,1.4-0.2
		c1.1,0,2.1,0.5,2.8,1.4c0.7,0.9,1.1,2.2,1.1,3.6c0,1.7-0.5,3.1-1.5,4.3c-1,1.2-2.1,1.8-3.5,1.8C21.1,25.1,20,24.6,19,23.6z
		 M21.5,22.3c0.7,0,1.3-0.3,1.8-0.9c0.5-0.6,0.7-1.3,0.7-2.2c0-0.8-0.2-1.4-0.6-1.9c-0.4-0.4-1-0.7-1.7-0.7c-0.6,0-1.2,0.3-1.7,1
		c-0.5,0.7-0.7,1.4-0.7,2.2c0,0.7,0.2,1.3,0.6,1.7C20.3,22,20.8,22.3,21.5,22.3L21.5,22.3z"/>
	<path fill="#FFFFFF" d="M29.8,10.3h3l-0.5,3.8h1.4l-0.4,3.1h-1.3l-1.1,7.6h-3l1-7.6h-1.5l0.4-3.1h1.5L29.8,10.3z"/>
	<path fill="#FFFFFF" d="M34.1,14.1h2.8l1.8,5.7l3.2-5.7H45l-8.8,15.5h-3l3.7-6.6L34.1,14.1z"/>
	<path fill="#FFFFFF" d="M48.7,14.1l-0.2,1.5c1-1.1,2-1.7,3.2-1.7c0.7,0,1.2,0.2,1.6,0.6c0.4,0.4,0.7,1,0.9,1.8
		c1.1-1.6,2.3-2.4,3.6-2.4c1.8,0,2.7,1.2,2.7,3.7c0,0.5,0,0.9-0.1,1.3l-0.8,6h-3l0.8-6.1c0-0.4,0.1-0.7,0.1-1c0-1-0.4-1.5-1.2-1.5
		c-0.5,0-1,0.2-1.3,0.7c-0.4,0.5-0.6,1.1-0.7,1.8l-0.9,6.1h-3l0.9-6.3c0-0.3,0-0.5,0-0.7c0-1.1-0.4-1.6-1.1-1.6
		c-0.5,0-0.9,0.2-1.4,0.7c-0.4,0.5-0.7,1-0.8,1.7l-0.8,6.2h-3l1.5-10.7H48.7z"/>
	<path fill="#FFFFFF" d="M61.1,14.1h2.8l1.8,5.7l3.2-5.7H72l-8.8,15.5h-3l3.7-6.6L61.1,14.1z"/>
	<path fill="#FFFFFF" d="M72.6,14.1h8.9l-5.6,8.2h4.4l-0.4,2.6h-9.1l5.7-8.2h-4.2L72.6,14.1z"/>
	<path fill="#FFFFFF" d="M91.3,20.2h-7.1c0.2,1.5,0.9,2.3,2.2,2.3c0.9,0,1.6-0.4,2.3-1.3l2.1,1.1c-1.4,1.8-3,2.7-4.8,2.7
		c-1.5,0-2.7-0.5-3.6-1.5c-0.9-1-1.4-2.2-1.4-3.7c0-1.6,0.5-3,1.6-4.2c1.1-1.2,2.3-1.8,3.8-1.8c1.5,0,2.7,0.5,3.5,1.6
		C90.9,16.5,91.3,18.1,91.3,20.2z M84.4,18.1h4.2c-0.1-1.2-0.8-1.7-2-1.7C85.6,16.3,84.8,16.9,84.4,18.1z"/>
	<path fill="#00A0E3" d="M110.9,25c-2-1.2-3.7,1.1-8.9-0.4c-3.8-1.1-5.1-4.1-5.6-5.8c0.3,5.1,4,9.6,9.3,10.7c3.1,0.7,6.4,0,8.9-1.8
		C113.3,27.2,112.4,25.9,110.9,25z"/>
</g>
</svg>
